<mxfile host="app.diagrams.net" agent="Mozilla/5.0 (Macintosh; Intel Mac OS X 10_15_7) AppleWebKit/537.36 (KHTML, like Gecko) Chrome/133.0.0.0 Safari/537.36" version="26.0.16">
  <diagram name="第 1 页" id="dFjqJ3ufOm5zdUFOWp8d">
    <mxGraphModel dx="248" dy="146" grid="1" gridSize="10" guides="1" tooltips="1" connect="1" arrows="1" fold="1" page="1" pageScale="1" pageWidth="827" pageHeight="1169" math="0" shadow="0">
      <root>
        <mxCell id="0" />
        <mxCell id="1" parent="0" />
        <mxCell id="VULZsUDI7530gcFNgRtK-7" style="edgeStyle=orthogonalEdgeStyle;rounded=0;orthogonalLoop=1;jettySize=auto;html=1;entryX=0;entryY=0.5;entryDx=0;entryDy=0;" edge="1" parent="1" source="VULZsUDI7530gcFNgRtK-1" target="VULZsUDI7530gcFNgRtK-2">
          <mxGeometry relative="1" as="geometry" />
        </mxCell>
        <mxCell id="VULZsUDI7530gcFNgRtK-1" value="Conv" style="rounded=1;whiteSpace=wrap;html=1;horizontal=0;" vertex="1" parent="1">
          <mxGeometry x="170" y="800" width="30" height="100" as="geometry" />
        </mxCell>
        <mxCell id="VULZsUDI7530gcFNgRtK-8" style="edgeStyle=orthogonalEdgeStyle;rounded=0;orthogonalLoop=1;jettySize=auto;html=1;entryX=0;entryY=0.5;entryDx=0;entryDy=0;" edge="1" parent="1" source="VULZsUDI7530gcFNgRtK-2" target="VULZsUDI7530gcFNgRtK-3">
          <mxGeometry relative="1" as="geometry" />
        </mxCell>
        <mxCell id="VULZsUDI7530gcFNgRtK-2" value="Sigmoid" style="rounded=1;whiteSpace=wrap;html=1;horizontal=0;" vertex="1" parent="1">
          <mxGeometry x="220" y="800" width="30" height="100" as="geometry" />
        </mxCell>
        <mxCell id="VULZsUDI7530gcFNgRtK-5" value="" style="endArrow=none;html=1;rounded=0;entryX=0;entryY=0.5;entryDx=0;entryDy=0;startFill=0;" edge="1" parent="1" target="VULZsUDI7530gcFNgRtK-15">
          <mxGeometry width="50" height="50" relative="1" as="geometry">
            <mxPoint x="75" y="930" as="sourcePoint" />
            <mxPoint x="320" y="930" as="targetPoint" />
          </mxGeometry>
        </mxCell>
        <mxCell id="VULZsUDI7530gcFNgRtK-6" value="" style="endArrow=classic;html=1;rounded=0;entryX=0;entryY=0.5;entryDx=0;entryDy=0;" edge="1" parent="1" target="VULZsUDI7530gcFNgRtK-1">
          <mxGeometry width="50" height="50" relative="1" as="geometry">
            <mxPoint x="120" y="930" as="sourcePoint" />
            <mxPoint x="390" y="850" as="targetPoint" />
            <Array as="points">
              <mxPoint x="120" y="850" />
            </Array>
          </mxGeometry>
        </mxCell>
        <mxCell id="VULZsUDI7530gcFNgRtK-11" value="" style="group;aspect=fixed;" vertex="1" connectable="0" parent="1">
          <mxGeometry x="279" y="840" width="20" height="20" as="geometry" />
        </mxCell>
        <mxCell id="VULZsUDI7530gcFNgRtK-3" value="" style="ellipse;whiteSpace=wrap;html=1;aspect=fixed;" vertex="1" parent="VULZsUDI7530gcFNgRtK-11">
          <mxGeometry width="20.000000000000004" height="20.000000000000004" as="geometry" />
        </mxCell>
        <mxCell id="VULZsUDI7530gcFNgRtK-10" value="" style="shape=umlDestroy;whiteSpace=wrap;html=1;strokeWidth=1;targetShapes=umlLifeline;" vertex="1" parent="VULZsUDI7530gcFNgRtK-11">
          <mxGeometry x="2.6666666666666665" y="2.6666666666666665" width="14.66666666666666" height="14.66666666666666" as="geometry" />
        </mxCell>
        <mxCell id="VULZsUDI7530gcFNgRtK-13" style="rounded=0;orthogonalLoop=1;jettySize=auto;html=1;entryX=0.5;entryY=1;entryDx=0;entryDy=0;" edge="1" parent="1" target="VULZsUDI7530gcFNgRtK-3">
          <mxGeometry relative="1" as="geometry">
            <mxPoint x="289" y="930" as="sourcePoint" />
            <mxPoint x="289" y="860" as="targetPoint" />
          </mxGeometry>
        </mxCell>
        <mxCell id="VULZsUDI7530gcFNgRtK-18" style="edgeStyle=orthogonalEdgeStyle;rounded=0;orthogonalLoop=1;jettySize=auto;html=1;" edge="1" parent="1" source="VULZsUDI7530gcFNgRtK-15">
          <mxGeometry relative="1" as="geometry">
            <mxPoint x="390" y="930" as="targetPoint" />
          </mxGeometry>
        </mxCell>
        <mxCell id="VULZsUDI7530gcFNgRtK-15" value="" style="ellipse;whiteSpace=wrap;html=1;aspect=fixed;" vertex="1" parent="1">
          <mxGeometry x="330" y="920" width="20.000000000000004" height="20.000000000000004" as="geometry" />
        </mxCell>
        <mxCell id="VULZsUDI7530gcFNgRtK-16" value="" style="shape=umlDestroy;whiteSpace=wrap;html=1;strokeWidth=1;targetShapes=umlLifeline;rotation=45;" vertex="1" parent="1">
          <mxGeometry x="332.6666666666667" y="922.6666666666666" width="14.66666666666666" height="14.66666666666666" as="geometry" />
        </mxCell>
        <mxCell id="VULZsUDI7530gcFNgRtK-17" style="edgeStyle=orthogonalEdgeStyle;rounded=0;orthogonalLoop=1;jettySize=auto;html=1;entryX=0.5;entryY=0;entryDx=0;entryDy=0;" edge="1" parent="1" source="VULZsUDI7530gcFNgRtK-3" target="VULZsUDI7530gcFNgRtK-15">
          <mxGeometry relative="1" as="geometry" />
        </mxCell>
      </root>
    </mxGraphModel>
  </diagram>
</mxfile>
